<svg width="657" height="761" viewBox="0 0 657 761" fill="none" xmlns="http://www.w3.org/2000/svg">
<path fill-rule="evenodd" clip-rule="evenodd" d="M393.103 730.623C401.912 722.097 431.264 690.584 440.754 683.216C441.045 682.905 441.439 682.705 441.862 682.655C442.283 682.605 442.71 682.708 443.067 682.942C443.42 683.179 443.681 683.532 443.801 683.939C443.921 684.35 443.891 684.787 443.717 685.178C438.992 693.707 397.788 732.429 395.385 734.707C393.744 736.753 386.696 745.242 384.774 747.004C384.834 748.599 384.417 750.171 383.576 751.526C382.732 752.887 381.504 753.957 380.049 754.613C374.89 756.367 369.838 758.413 364.913 760.735C364.192 761.376 363.351 760.735 363.551 760.058C366.021 756.964 368.093 753.571 369.718 749.968C370.068 747.579 371.279 745.403 373.125 743.845C374.967 742.294 377.316 741.464 379.729 741.515C380.009 740.998 390.62 732.268 393.103 730.623ZM379.608 742.155C377.446 742.279 375.397 743.182 373.842 744.689C372.284 746.196 371.316 748.206 371.119 750.368C370.218 753.084 368.864 755.632 367.115 757.896C377.246 753.688 380.69 754.292 382.892 750.885C383.589 749.756 384.026 748.482 384.173 747.164C381.37 746.4 379.408 741.675 379.608 742.155ZM392.302 732.108C389.179 734.948 385.935 737.991 381.17 742.119C381.87 743.51 382.919 744.696 384.213 745.563L394.665 734.387C393.744 733.797 392.953 733.018 392.342 732.108H392.302ZM374.483 684.938C379.048 681.934 440.995 641.17 441.595 643.172C442.196 645.175 380.81 691.625 380.289 691.945C377.686 694.908 360.268 713.688 357.985 714.489C355.082 714.38 352.329 713.164 350.297 711.082C347.514 708.243 345.452 704.765 344.29 700.955C343.53 698.232 372 685.979 374.483 684.938ZM346.253 702.757C347.04 705.296 348.468 707.588 350.397 709.415C352.322 711.249 354.688 712.553 357.264 713.208C354.381 710.485 348.295 704.679 346.253 702.757ZM358.265 693.507C353.871 695.602 349.65 698.055 345.652 700.835C346.172 702.556 345.652 700.835 349.656 704.158C352.906 706.707 355.756 709.728 358.105 713.128C360.107 711.643 368.236 703.558 367.756 703.998C364.756 700.321 361.545 696.817 358.145 693.507H358.265ZM374.643 685.498C368.036 688.581 363.631 690.744 358.626 693.186C362.597 695.722 365.82 699.276 367.956 703.477C370.358 701.075 378.527 692.786 379.729 691.465C378.567 690.343 375.524 686.86 374.523 685.578L374.643 685.498ZM471.668 639.729C473.71 621.789 476.713 599.485 479.156 599.365C481.598 599.245 478.955 621.789 476.433 639.849C484.441 640.53 493.972 644.934 492.45 652.543C492.524 653.898 492.347 655.255 491.929 656.547C495.934 683.736 492.37 689.342 492.65 688.902C490.318 691.711 487.401 693.974 484.101 695.539C480.801 697.1 477.2 697.925 473.55 697.952C469.885 697.971 466.258 697.207 462.908 695.719C459.561 694.227 456.568 692.038 454.129 689.302C450.805 684.297 452.927 663.154 453.568 657.268C453.214 656.029 453.011 654.751 452.967 653.464C452.483 651.358 452.757 649.149 453.738 647.223C454.719 645.298 456.344 643.78 458.333 642.932C462.428 640.736 467.023 639.632 471.668 639.729ZM491.169 674.887C488.005 681.374 479.156 683.416 472.028 683.416C471.931 685.334 471.718 687.247 471.387 689.142C471.067 690.664 470.707 691.985 469.145 691.945C466.892 691.488 464.907 690.166 463.619 688.261C462.578 686.699 462.818 685.899 464.139 682.455C462.405 682.001 460.789 681.176 459.408 680.035C458.023 678.894 456.905 677.466 456.131 675.848C456.148 679.425 456.511 682.992 457.212 686.499C458.057 688.091 459.264 689.462 460.736 690.503C469.786 697.871 480.757 695.789 489.927 687.901C490.328 684.937 490.888 679.131 491.169 674.887ZM454.409 658.869C454.129 663.715 453.048 684.177 455.771 688.181C457.866 690.617 460.515 692.512 463.499 693.707C460.372 692.182 457.829 689.679 456.251 686.579C455.564 682.291 455.334 677.943 455.57 673.605C455.317 672.39 455.364 671.133 455.707 669.938C456.047 668.746 456.675 667.656 457.532 666.758C460.375 663.474 461.056 665.356 458.453 663.554C456.751 662.406 455.36 660.851 454.409 659.03V658.869ZM465.181 682.495C464.696 683.793 464.333 685.134 464.099 686.499C464.099 687.861 467.703 690.904 469.305 690.744C469.866 690.744 470.026 689.903 470.226 688.902C470.583 687.09 470.823 685.258 470.947 683.416C469.001 683.376 467.069 683.122 465.181 682.655V682.495ZM491.449 657.908C490.074 660.444 487.968 662.51 485.402 663.835C490.007 665.276 493.051 668.36 491.809 673.045C491.809 675.567 491.809 678.05 491.569 680.292C491.169 688.662 490.888 688.301 491.289 687.7C493.171 680.573 492.21 665.597 491.449 658.069V657.908ZM484.722 664.195C480.977 666.007 476.87 666.952 472.709 666.958C472.715 669.35 472.405 671.733 471.788 674.046C471.952 676.712 471.952 679.388 471.788 682.054C476.803 682.225 481.762 680.96 486.083 678.41C492.45 674.406 493.451 667.158 484.722 664.355V664.195ZM468.184 674.206C467.944 674.766 465.941 680.333 465.581 681.334C467.376 681.77 469.218 681.998 471.067 682.014C471.067 680.052 471.467 676.288 471.427 674.326C470.359 674.56 469.258 674.573 468.184 674.366V674.206ZM460.696 664.916C453.008 670.202 456.251 678.611 464.7 681.173C465.541 679.051 466.862 676.088 467.823 674.046C467.933 671.653 468.201 669.274 468.624 666.918C465.888 666.708 463.205 666.031 460.696 664.916ZM468.985 666.958L468.624 673.445C469.305 673.445 471.507 673.765 471.267 673.445C471.027 673.125 471.788 669.681 472.068 667.038C471.027 667.118 469.986 667.078 468.985 666.998V666.958ZM490.768 656.347C483.641 665.276 462.097 665.396 454.729 656.347C455.507 658.352 456.791 660.127 458.453 661.492C460.115 662.861 462.101 663.778 464.22 664.155C473.349 666.638 487.084 664.636 490.768 656.387V656.347ZM475.832 644.013C474.631 652.302 473.59 659.03 473.229 661.232C479.276 661.232 487.365 659.03 490.168 654.144C489.287 647.898 482.159 644.654 475.832 644.053V644.013ZM471.187 644.013C467.88 644.176 464.68 645.225 461.917 647.05C459.157 648.875 456.938 651.408 455.49 654.385C458.053 658.389 464.5 660.591 469.465 661.072C469.665 658.869 470.306 652.222 471.187 644.053V644.013ZM471.588 640.49C467.223 640.65 462.968 641.901 459.214 644.134C455.65 646.416 453.248 649.94 455.21 653.744C456.575 650.591 458.804 647.884 461.636 645.935C464.47 643.986 467.794 642.878 471.227 642.732L471.588 640.49ZM476.433 640.89C476.433 641.571 476.233 642.252 476.112 642.932C482.72 643.533 489.647 646.937 490.728 653.343C492.17 649.7 489.767 646.416 486.403 644.294C483.364 642.455 479.963 641.293 476.433 640.89ZM514.794 657.148C512.912 647.818 497.696 578.303 502.781 574.258C504.587 573.264 506.552 572.587 508.587 572.256C514.193 571.055 549.952 566.25 551.594 571.095C553.235 575.94 543.585 649.74 542.864 653.704C542.864 656.387 541.863 663.875 541.863 663.875C540.826 666.047 539.284 667.939 537.372 669.401C535.456 670.862 533.224 671.846 530.855 672.277C528.489 672.708 526.05 672.567 523.747 671.873C521.441 671.179 519.332 669.948 517.597 668.28C516.259 664.682 515.321 660.948 514.794 657.148ZM549.551 579.984C534.219 580.188 518.918 581.526 503.782 583.989C505.024 600.807 512.311 640.049 515.475 656.787C519.643 659.066 524.394 660.057 529.126 659.637C533.861 659.216 538.363 657.405 542.063 654.425C542.504 651.021 549.231 584.469 549.551 579.984ZM545.948 603.209C545.948 603.209 546.188 600.487 542.824 601.167C539.461 601.848 533.334 607.614 525.806 606.974C518.278 606.333 511.11 602.128 508.868 604.931C506.625 607.734 516.115 616.584 528.409 614.502C542.504 612.139 546.228 606.333 545.948 603.209ZM506.305 574.779C505.704 574.779 504.062 575.42 503.902 575.94C503.562 578.48 503.562 581.049 503.902 583.588L507.907 582.828C507.002 580.231 506.461 577.521 506.305 574.779ZM513.232 573.297C511.19 573.658 508.788 574.098 506.825 574.619C507.42 577.262 507.863 579.934 508.147 582.627C509.669 582.347 513.913 581.626 515.154 581.506C515.034 581.226 514.073 577.902 513.232 573.297ZM520.881 572.296C518.358 572.576 515.955 572.897 513.753 573.217C514.734 575.896 515.328 578.699 515.515 581.546L522.242 580.705C522.002 579.384 521.161 575.219 520.881 572.296ZM528.369 571.575C527.007 571.575 524.124 571.896 521.401 572.216C522.246 574.952 522.662 577.802 522.643 580.665L529.85 579.984C529.73 579.304 528.889 575.7 528.489 571.575H528.369ZM536.377 571.055L528.889 571.535C529.753 574.255 530.211 577.088 530.251 579.944C532.573 579.944 535.136 579.624 537.418 579.544C537.418 579.464 536.497 571.575 536.497 571.055H536.377ZM546.068 571.055C545.924 573.861 545.617 576.654 545.147 579.424H549.592C549.592 578.423 550.272 571.695 549.592 571.415C548.43 571.185 547.252 571.078 546.068 571.095V571.055ZM545.547 571.055H536.938C537.712 573.814 538.009 576.684 537.819 579.544H544.786C544.666 576.694 544.923 573.837 545.547 571.055ZM244.182 626.194C249.428 626.194 253.712 628.116 253.712 630.559C253.712 633.002 249.428 634.924 244.182 634.924C238.936 634.924 234.692 632.962 234.692 630.559C234.692 628.156 238.776 626.194 244.182 626.194ZM142.953 603.129C142.953 604.01 141.311 604.811 139.229 604.891C137.147 604.971 135.224 604.291 135.224 603.37C135.305 601.247 142.873 600.847 142.953 603.129Z" fill="black"/>
<path d="M180.874 704.198C183.44 704.198 185.519 702.961 185.519 701.435C185.519 699.911 183.44 698.672 180.874 698.672C178.309 698.672 176.229 699.911 176.229 701.435C176.229 702.961 178.309 704.198 180.874 704.198Z" fill="black"/>
<path fill-rule="evenodd" clip-rule="evenodd" d="M380.85 568.812C384.854 568.812 388.298 569.974 388.298 571.375C388.298 572.777 384.974 573.978 380.85 573.978C376.725 573.978 373.442 572.817 373.442 571.375C373.442 569.934 376.765 568.812 380.85 568.812ZM125.896 466.582C125.896 467.583 125.295 475.152 125.616 486.203C125.616 487.685 125.896 492.731 125.896 492.731C125.896 492.731 126.376 493.011 126.376 492.731C126.376 492.45 126.617 487.685 126.657 486.203C126.897 476.994 126.376 466.182 126.376 466.582C126.376 466.519 126.352 466.459 126.306 466.412C126.261 466.369 126.2 466.342 126.136 466.342C126.072 466.342 126.012 466.369 125.967 466.412C125.921 466.459 125.896 466.519 125.896 466.582ZM292.675 29.0312C297.68 30.3926 306.53 33.2357 309.733 37.3601C309.85 37.5114 309.913 37.6959 309.913 37.8861C309.913 38.0763 309.857 38.2618 309.743 38.415C309.63 38.5681 309.47 38.6809 309.289 38.736C309.106 38.7914 308.913 38.7864 308.732 38.7216C292.715 32.1946 267.207 40.5236 251.031 47.2508C244.624 49.9337 283.064 6.56691 310.694 13.3742C310.884 13.4318 311.048 13.5485 311.168 13.707C311.285 13.8659 311.348 14.0577 311.348 14.2553C311.348 14.4525 311.285 14.6447 311.168 14.8032C311.048 14.9621 310.884 15.0785 310.694 15.1362C304.414 16.6091 298.247 18.5225 292.234 20.8624C296.839 21.0626 307.451 21.7433 311.015 24.8667C311.158 24.9889 311.259 25.1493 311.312 25.3292C311.362 25.5088 311.362 25.6993 311.305 25.8778C311.248 26.056 311.145 26.2145 311.001 26.3336C310.854 26.4528 310.681 26.5275 310.494 26.5485C304.517 27.0681 298.568 27.8966 292.675 29.0312ZM305.969 14.4955C298.104 14.4668 290.369 16.5107 283.545 20.4219C271.335 26.9002 260.464 35.6373 251.511 46.1696C266.847 39.5225 288.671 31.9944 305.048 35.7584C299.883 33.1196 294.39 31.1805 288.711 29.9922C288.504 29.9485 288.32 29.8351 288.186 29.6709C288.053 29.507 287.98 29.3022 287.98 29.0912C287.98 28.88 288.053 28.6755 288.186 28.5113C288.32 28.3475 288.504 28.234 288.711 28.1903C294.814 26.5462 301.04 25.421 307.331 24.8266C301.191 23.3785 294.901 22.6527 288.59 22.6643C288.387 22.67 288.183 22.6069 288.02 22.4851C287.853 22.363 287.733 22.1892 287.676 21.9913C287.623 21.7931 287.636 21.5822 287.713 21.3923C287.793 21.2021 287.933 21.044 288.11 20.9425C293.803 18.1314 299.796 15.9688 305.969 14.4955ZM35.5586 349.456C31.5762 349.977 27.5617 350.221 23.5457 350.177C23.3418 350.184 23.1409 350.124 22.9785 350C22.8162 349.877 22.7012 349.7 22.6538 349.5C22.6065 349.303 22.6298 349.093 22.7194 348.909C22.8089 348.725 22.9596 348.579 23.1453 348.495C28.1106 345.812 39.8032 343.169 45.8097 339.005L60.6657 329.074C60.6955 329.041 60.7327 329.015 60.7742 328.994C60.8157 328.974 60.8608 328.964 60.9059 328.964C60.9518 328.964 60.9962 328.974 61.0377 328.994C61.0792 329.015 61.1164 329.041 61.1462 329.074C61.5867 329.595 60.6657 329.635 55.6603 336.242C52.3374 340.333 49.6385 344.895 47.6517 349.777C45.5046 354.882 43.6197 360.095 42.0056 365.393C42.0056 366.595 39.1225 367.476 39.9233 360.909C40.2553 358.459 40.7089 356.027 41.2848 353.621C37.1305 356.621 32.7534 359.297 28.1907 361.629C28.0262 361.723 27.8369 361.766 27.6483 361.749C27.4597 361.73 27.2806 361.656 27.1365 361.532C26.9916 361.409 26.8889 361.246 26.8409 361.062C26.7928 360.879 26.803 360.685 26.8693 360.508C28.9173 356.23 31.8841 352.457 35.5586 349.456ZM58.2231 331.717C38.6019 345.532 47.3714 340.527 27.7903 348.335C31.5376 348.325 35.2623 347.761 38.8422 346.653L39.2826 346.293C40.1636 345.612 41.7253 346.974 40.0034 348.095C36.1549 351.121 32.7563 354.682 29.9126 358.666C34.3472 356.397 38.5 353.614 42.2859 350.377C42.4271 350.214 42.6208 350.103 42.8341 350.071C43.0474 350.034 43.2659 350.074 43.4522 350.184C43.6379 350.294 43.7799 350.467 43.8519 350.671C43.924 350.874 43.9233 351.095 43.8476 351.298C43.019 354.318 42.3514 357.378 41.8454 360.468C45.011 349.747 50.6163 339.906 58.2231 331.717ZM60.946 313.017C67.7366 302.015 77.4379 293.103 88.9762 287.269C104.513 279.941 110.199 287.75 103.151 301.765C97.1501 312.961 88.5714 322.568 78.1245 329.795C79.301 333.903 79.7743 338.181 79.526 342.449C78.4849 346.453 58.9038 353.18 56.2209 352.86C56.0178 352.85 55.8205 352.786 55.6516 352.673C55.4826 352.56 55.3472 352.403 55.2599 352.219C54.8594 351.298 55.7804 350.457 56.6614 349.777C61.5503 346.206 66.6736 342.969 71.9979 340.086L71.7176 333.439L69.4351 334.56C69.2866 334.6 69.1293 334.6 68.9808 334.557C68.833 334.517 68.6991 334.433 68.5942 334.32L55.9806 322.027C55.9217 321.96 55.8889 321.877 55.8889 321.786C55.8889 321.696 55.9217 321.613 55.9806 321.546C55.9806 321.546 56.3811 320.705 57.222 319.224H50.2144C49.1733 321.386 42.2058 335.481 39.9634 336.442C39.8025 336.519 39.6248 336.559 39.4465 336.552C39.2674 336.549 39.0919 336.503 38.9354 336.416C38.7781 336.329 38.6449 336.206 38.5451 336.058C38.4454 335.908 38.382 335.738 38.3617 335.561C37.8811 332.558 43.8075 312.977 47.7318 311.816C52.0892 311.415 56.4823 311.713 60.7458 312.697C60.8091 312.722 60.8623 312.766 60.8979 312.824C60.9343 312.882 60.9511 312.949 60.946 313.017ZM77.2435 330.075C75.6542 331.137 74.0102 332.111 72.3182 332.998L73.1591 340.567C73.1591 341.167 73.1591 340.807 65.1505 346.093C62.7079 347.654 60.2252 349.296 58.5434 350.537C64.6198 348.862 70.4792 346.483 76.0022 343.45C76.4427 343.169 77.6039 342.369 77.7641 341.848C78.1871 337.921 78.0116 333.95 77.2435 330.075ZM59.5845 316.981C58.0228 319.304 57.0618 320.986 56.7014 321.666L69.1148 333.159C70.5563 332.438 72.118 331.557 73.7598 330.556C68.5877 326.522 63.8386 321.974 59.5845 316.981ZM60.5856 313.578C56.4553 312.991 52.2625 312.991 48.1322 313.578C46.7307 314.058 44.3281 320.425 43.8876 321.586C42.4737 325.357 41.3365 329.224 40.4839 333.159C42.8865 329.595 49.4536 317.942 49.1733 318.503C49.2279 318.389 49.3131 318.296 49.4201 318.233C49.5264 318.169 49.6495 318.14 49.774 318.142L57.5824 318.543C58.3832 317.021 59.3443 315.46 60.5856 313.578ZM82.6494 292.795C73.5727 298.956 65.8589 306.916 59.985 316.18C65.302 320.262 70.1625 324.907 74.4806 330.035C83.6177 324.012 91.4603 316.227 97.5454 307.131L82.6494 292.795ZM75.4816 302.846C74.7114 303.653 74.1078 304.604 73.7045 305.645C73.3018 306.685 73.1082 307.795 73.1344 308.911C73.1599 310.026 73.4052 311.125 73.8566 312.146C74.3073 313.167 74.9545 314.088 75.7619 314.859C76.5694 315.63 77.5202 316.234 78.5606 316.638C79.6017 317.038 80.7106 317.232 81.8267 317.208C82.9421 317.181 84.0414 316.935 85.0621 316.484C86.0829 316.034 87.0046 315.386 87.7749 314.579C89.3307 312.948 90.1753 310.767 90.1229 308.514C90.0704 306.261 89.1247 304.122 87.4946 302.566C85.8645 301.01 83.6832 300.165 81.4299 300.218C79.1773 300.27 77.0375 301.216 75.4816 302.846ZM86.6537 303.487C87.9423 304.81 88.6638 306.585 88.6638 308.432C88.6638 310.279 87.9423 312.054 86.6537 313.377C85.3898 314.549 83.7262 315.196 82.0028 315.183C80.2788 315.169 78.6247 314.502 77.3782 313.31C76.1311 312.12 75.3855 310.499 75.2938 308.777C75.2021 307.056 75.77 305.364 76.8832 304.047C78.1223 302.707 79.8332 301.899 81.6556 301.795C83.4779 301.69 85.2696 302.296 86.6537 303.487ZM84.4513 305.769C84.9966 306.335 85.3636 307.048 85.5063 307.822C85.6482 308.594 85.5609 309.391 85.2536 310.114C84.9464 310.837 84.4331 311.455 83.7779 311.888C83.1219 312.322 82.3538 312.552 81.5682 312.552C80.7826 312.552 80.0138 312.322 79.3585 311.888C78.704 311.455 78.1907 310.837 77.8835 310.114C77.5755 309.391 77.4874 308.594 77.6309 307.822C77.7728 307.048 78.1398 306.335 78.6851 305.769C79.0586 305.382 79.5063 305.074 80.0021 304.863C80.4972 304.652 81.0302 304.544 81.5682 304.544C82.1062 304.544 82.6392 304.652 83.1343 304.863C83.6301 305.074 84.0778 305.382 84.4513 305.769Z" fill="black"/>
<path fill-rule="evenodd" clip-rule="evenodd" d="M211.226 33.7964C210.86 33.4857 210.573 33.0926 210.388 32.6498C210.203 32.2066 210.125 31.7261 210.161 31.2477C210.197 30.7688 210.346 30.3053 210.595 29.8952C210.845 29.4847 211.188 29.1393 211.596 28.8871C212.005 28.6345 212.467 28.4823 212.945 28.443C213.424 28.4036 213.906 28.4777 214.35 28.6598C214.794 28.8417 215.188 29.126 215.501 29.49C215.815 29.8538 216.038 30.2866 216.152 30.7531C216.181 31.257 216.09 31.7605 215.887 32.223C215.684 32.6852 215.376 33.0933 214.985 33.4133C214.594 33.7333 214.134 33.9565 213.641 34.065C213.148 34.1735 212.637 34.1634 212.148 34.0366C212.148 34.4371 211.547 38.8818 210.346 44.0874C215.909 44.1085 221.281 46.1263 225.482 49.7736C225.543 49.6618 225.643 49.5764 225.763 49.5333C256.996 45.1286 260.239 55.4595 250.188 63.7485C238.896 73.0785 204.219 83.77 185.078 81.2473C180.073 80.6467 172.304 78.3242 172.224 73.5991C172.224 67.5125 188.523 60.7452 189.163 60.4249C191.773 53.8141 196.817 48.4545 203.258 45.4489C200.415 42.3656 197.452 37.8808 196.771 37.1199C193.368 38.9619 190.164 34.5972 192.767 32.3548C193.34 31.8519 194.088 31.5933 194.849 31.634C195.484 31.5052 196.143 31.5944 196.722 31.8867C197.3 32.179 197.762 32.6575 198.035 33.2451C198.308 33.8324 198.375 34.4948 198.226 35.1251C198.077 35.7555 197.719 36.3171 197.211 36.7195C198.559 37.6899 199.759 38.8498 200.776 40.1632C206.542 47.1307 201.657 44.7281 208.784 44.1675C208.996 40.5957 209.822 37.0873 211.226 33.7964ZM188.482 61.5461C184.878 63.308 173.265 69.5547 173.426 73.559C173.426 74.8805 174.587 76.2019 176.709 77.3631C191.605 85.3718 235.934 72.7982 248.787 62.347C256.115 56.4606 255.354 50.8147 241.419 49.8136C236.076 49.5714 230.721 49.7318 225.402 50.2941C224.4 52.6166 214.75 70.8761 188.482 61.5461ZM184.477 71.0764C184.303 71.4469 184.209 71.8503 184.2 72.2595C184.191 72.6686 184.269 73.0756 184.427 73.4527C184.587 73.8299 184.823 74.1699 185.12 74.4509C185.419 74.7312 185.773 74.946 186.16 75.0807C186.544 75.1761 186.943 75.195 187.334 75.136C187.725 75.077 188.1 74.9416 188.439 74.737C188.778 74.5324 189.072 74.2623 189.307 73.9435C189.541 73.6246 189.709 73.2627 189.803 72.8783C190.043 72.1721 189.991 71.3996 189.661 70.7313C189.33 70.0629 188.748 69.5533 188.042 69.3145C187.335 69.0757 186.563 69.1266 185.895 69.4572C185.227 69.7877 184.717 70.3701 184.477 71.0764ZM187.762 69.9552C189.524 70.756 188.322 73.9595 186.64 73.479C184.958 72.9984 185.84 69.5948 187.762 69.9552ZM215.391 67.6727C215.108 67.4616 214.781 67.3174 214.435 67.249C214.088 67.1813 213.731 67.1915 213.389 67.2803C213.047 67.3684 212.729 67.5322 212.459 67.7593C212.188 67.9872 211.973 68.2719 211.827 68.5937C211.52 69.3116 211.489 70.1175 211.74 70.8572C211.991 71.5962 212.508 72.2165 213.189 72.598C213.514 72.7997 213.88 72.9256 214.261 72.9671C214.641 73.0086 215.025 72.9642 215.386 72.8368C215.748 72.7101 216.076 72.5041 216.347 72.2347C216.618 71.9646 216.825 71.637 216.952 71.2766C217.177 70.5886 217.142 69.8423 216.855 69.179C216.567 68.5151 216.047 67.9792 215.391 67.6727ZM215.071 68.2333C216.673 69.4346 215.632 72.2376 213.95 71.2766C212.268 70.3155 213.149 67.4324 215.071 68.2733V68.2333ZM236.494 56.781C236.261 56.5633 235.982 56.4002 235.677 56.3055C235.374 56.2102 235.052 56.1847 234.737 56.2306C234.421 56.2772 234.12 56.3936 233.856 56.572C233.591 56.7504 233.371 56.9863 233.211 57.2615C232.901 57.9029 232.836 58.6346 233.027 59.3204C233.219 60.0063 233.654 60.5982 234.251 60.9855C234.518 61.2032 234.83 61.3583 235.164 61.4405C235.498 61.5228 235.847 61.5294 236.184 61.4609C236.521 61.3918 236.839 61.2483 237.115 61.0416C237.39 60.8348 237.615 60.5698 237.776 60.2647C237.923 59.9524 238.006 59.6138 238.022 59.2687C238.037 58.9236 237.984 58.5785 237.865 58.2546C237.746 57.9298 237.563 57.6328 237.328 57.3794C237.092 57.1268 236.809 56.9229 236.494 56.781ZM236.173 57.3015C237.374 58.4227 236.534 60.6652 235.133 59.7041C233.731 58.7431 234.531 56.5007 236.173 57.3015ZM194.849 32.2347C195.367 32.2538 195.859 32.4653 196.23 32.8283C196.6 33.1911 196.822 33.6789 196.851 34.1968C196.83 34.6606 196.632 35.0984 196.295 35.4195C195.96 35.7401 195.514 35.919 195.05 35.9186C194.808 35.9317 194.565 35.897 194.337 35.8166C194.108 35.7361 193.898 35.6117 193.717 35.4499C193.353 35.1232 193.133 34.6653 193.107 34.1768C193.08 33.6882 193.249 33.2091 193.576 32.8447C193.902 32.4806 194.361 32.261 194.849 32.2347ZM212.588 28.831C213.106 28.8501 213.598 29.0616 213.969 29.4247C214.339 29.7874 214.561 30.2753 214.59 30.7931C214.57 31.257 214.371 31.6948 214.034 32.0158C213.699 32.3365 213.253 32.5153 212.789 32.515C212.53 32.5651 212.264 32.5594 212.008 32.498C211.752 32.4369 211.512 32.3215 211.305 32.1596C211.097 31.9978 210.926 31.7936 210.805 31.5603C210.682 31.3271 210.613 31.0704 210.598 30.8078C210.583 30.5449 210.625 30.2822 210.721 30.037C210.816 29.792 210.963 29.5701 211.152 29.3867C211.341 29.2031 211.566 29.062 211.815 28.9732C212.062 28.8841 212.326 28.8494 212.588 28.8711V28.831ZM410.201 227.645C412.08 224.163 415.16 221.484 418.871 220.107C422.578 218.729 426.663 218.749 430.36 220.16C434.054 221.572 437.11 224.28 438.956 227.779C440.804 231.279 441.315 235.33 440.394 239.177C446.284 242.043 451.91 245.42 457.212 249.268C459.534 251.351 459.214 253.273 455.09 252.992C447.929 252.354 440.845 251.012 433.947 248.988C431.738 250.6 429.162 251.632 426.452 251.987C423.742 252.342 420.986 252.01 418.437 251.021C415.887 250.032 413.628 248.418 411.87 246.327C410.108 244.237 408.9 241.737 408.359 239.057C404.355 237.135 390.46 229.968 389.619 225.923C389.339 224.442 390.78 223.761 392.302 223.601C398.456 223.924 404.505 225.292 410.201 227.645ZM440.074 240.018C439.293 242.739 437.814 245.209 435.789 247.186C442.593 249.147 449.564 250.488 456.611 251.19C454.329 248.227 443.357 241.9 440.074 240.018ZM409.801 239.658C410.452 241.911 411.609 243.984 413.191 245.716C414.773 247.448 416.732 248.792 418.914 249.644C421.1 250.497 423.452 250.834 425.788 250.63C428.124 250.425 430.379 249.685 432.385 248.467C424.65 246.095 417.099 243.15 409.801 239.658ZM434.548 246.826C437.361 244.318 439.152 240.862 439.583 237.118C440.01 233.373 439.045 229.602 436.87 226.524C435.729 224.843 434.257 223.412 432.545 222.319C430.83 221.226 428.915 220.495 426.909 220.169C424.904 219.842 422.851 219.929 420.883 220.423C418.911 220.916 417.062 221.807 415.447 223.04C413.272 224.641 411.556 226.787 410.475 229.261C409.39 231.735 408.98 234.451 409.28 237.135C417.43 241.041 425.879 244.281 434.548 246.826ZM409.801 228.446C406.838 227.485 393.784 223.721 391.421 225.563C392.342 228.446 405.356 235.213 408.359 236.454C408.132 233.705 408.627 230.943 409.801 228.446ZM119.488 475.232C124.323 478.409 129.412 481.181 134.704 483.521C134.756 483.537 134.811 483.534 134.861 483.518C134.911 483.497 134.954 483.461 134.981 483.414C135.009 483.367 135.021 483.314 135.014 483.261C135.007 483.207 134.983 483.157 134.944 483.12C130.104 479.95 125.016 477.181 119.728 474.831C119.677 474.814 119.621 474.818 119.571 474.835C119.52 474.855 119.478 474.892 119.45 474.938C119.423 474.981 119.411 475.038 119.418 475.092C119.425 475.145 119.449 475.195 119.488 475.232ZM32.674 123.653C32.674 113.963 33.2346 104.833 33.2346 105.233C33.2608 105.153 33.3118 105.083 33.3802 105.034C33.4486 104.984 33.5309 104.958 33.6154 104.958C33.6998 104.958 33.7814 104.984 33.8498 105.034C33.9182 105.083 33.9692 105.153 33.9954 105.233C33.9954 108.156 34.516 110.759 34.556 124.294C37.5156 122.368 40.5763 120.603 43.7259 119.008C43.7681 118.982 43.8147 118.964 43.8635 118.956C43.913 118.948 43.9632 118.949 44.0113 118.96C44.0594 118.972 44.1052 118.992 44.146 119.021C44.186 119.049 44.2203 119.086 44.2465 119.128C44.2727 119.17 44.2909 119.217 44.2989 119.266C44.3076 119.315 44.3054 119.365 44.2945 119.414C44.2836 119.462 44.2625 119.507 44.2341 119.547C44.205 119.588 44.1686 119.622 44.1263 119.649C41.5636 121.751 38.8894 123.716 36.1177 125.535C41.8839 128.698 43.0452 129.539 45.8081 131.221C48.5711 132.903 48.6112 132.903 48.4109 133.303C48.2107 133.704 48.0105 133.544 45.2475 132.262C42.4846 130.981 40.6025 130.18 34.556 126.856C34.556 142.193 33.9554 149.201 33.9554 148.8C33.9292 148.88 33.8782 148.95 33.8098 149C33.7413 149.049 33.6598 149.075 33.5753 149.075C33.4909 149.075 33.4086 149.049 33.3402 149C33.2717 148.95 33.2208 148.88 33.1946 148.8C33.1946 145.917 32.634 143.394 32.634 127.777C29.5099 129.847 26.2751 131.745 22.9435 133.464C22.9013 133.49 22.8547 133.508 22.8059 133.516C22.7571 133.524 22.7069 133.523 22.6588 133.512C22.6101 133.5 22.5642 133.48 22.5242 133.45C22.4841 133.422 22.4492 133.386 22.423 133.343C22.3967 133.301 22.3793 133.255 22.3713 133.206C22.3625 133.157 22.364 133.107 22.3756 133.058C22.3866 133.01 22.4069 132.964 22.4361 132.924C22.4645 132.883 22.5009 132.849 22.5431 132.823C25.6963 130.241 28.9988 127.847 32.4337 125.655C29.1902 123.853 28.1491 123.213 25.5864 121.651C23.0236 120.089 22.1827 119.609 22.3829 119.168C22.4586 119.113 22.5496 119.083 22.6436 119.083C22.7367 119.083 22.8285 119.113 22.9035 119.168C27.9489 121.05 30.9521 122.772 32.674 123.653Z" fill="black"/>
<path fill-rule="evenodd" clip-rule="evenodd" d="M119.729 483.521C124.215 481.168 128.465 478.391 132.423 475.232C132.703 475.232 132.423 474.671 132.183 474.831C127.7 477.187 123.45 479.963 119.489 483.12C119.249 483.28 119.489 483.681 119.729 483.521ZM243.863 242.06C243.863 253.312 244.263 255.114 244.263 257.156C244.246 257.199 244.24 257.245 244.245 257.291C244.25 257.336 244.266 257.379 244.291 257.417C244.317 257.456 244.352 257.487 244.392 257.508C244.432 257.529 244.477 257.54 244.523 257.54C244.569 257.54 244.614 257.529 244.654 257.508C244.695 257.487 244.73 257.456 244.756 257.417C244.781 257.379 244.797 257.336 244.802 257.291C244.807 257.245 244.801 257.199 244.784 257.156C244.784 257.556 245.224 251.069 245.224 241.379C248.328 243.135 251.523 244.726 254.795 246.144C255.115 246.144 255.395 245.824 255.075 245.664C252.256 243.781 249.342 242.043 246.346 240.458C248.329 239.234 250.241 237.897 252.072 236.454C252.126 236.413 252.163 236.353 252.177 236.286C252.19 236.219 252.178 236.149 252.143 236.09C252.109 236.031 252.054 235.987 251.99 235.965C251.925 235.944 251.854 235.947 251.792 235.973C251.792 235.973 248.508 237.655 245.224 239.777C245.224 229.807 244.824 227.764 244.824 226.083C244.824 226.009 244.794 225.938 244.742 225.884C244.689 225.832 244.618 225.802 244.544 225.802C244.469 225.802 244.398 225.832 244.346 225.884C244.293 225.938 244.263 226.009 244.263 226.083C244.263 225.682 243.903 232.529 243.863 239.337C242.702 238.736 240.379 237.495 236.855 235.973C236.535 235.973 236.255 236.294 236.575 236.454C236.896 236.614 239.538 238.496 243.703 240.778C241.237 242.272 238.857 243.903 236.575 245.664C236.255 245.664 236.575 246.344 236.855 246.144C236.455 246.344 239.458 244.863 243.863 242.06ZM344.531 525.005C340.166 523.203 294.116 520.36 293.716 520.32C292.475 520.32 283.505 522.122 282.904 522.282C282.304 522.442 282.904 522.282 282.904 522.483C286.405 524.081 290.019 525.419 293.716 526.487C297.72 527.328 305.729 527.408 343.69 531.492C344.411 531.492 345.932 529.01 345.051 525.406C345.011 525.286 344.731 525.125 344.531 525.005ZM293.516 526.086L287.469 523.964C287.703 523.644 287.857 523.273 287.91 522.883C287.967 522.493 287.926 522.092 287.79 521.722C289.748 521.328 291.727 521.044 293.716 520.881C294.677 521.842 292.114 522.202 294.036 523.444C294.277 523.444 294.317 523.444 294.036 523.724C293.936 523.774 293.846 523.844 293.773 523.931C293.696 524.017 293.642 524.118 293.609 524.228C293.575 524.335 293.562 524.451 293.575 524.561C293.586 524.675 293.623 524.785 293.676 524.885C293.996 525.446 294.357 525.686 293.516 526.086ZM293.996 526.086C295.117 525.486 293.596 524.565 294.357 524.084C296.038 522.923 288.03 523.243 340.927 528.089C340.817 528.913 341 529.75 341.447 530.451L293.996 526.086ZM340.967 527.768C339.165 527.568 294.837 523.363 294.557 523.123C294.277 522.883 293.556 522.683 293.916 522.202C294.277 521.722 294.477 521.281 293.916 520.801C294.317 520.801 333.599 523.924 341.968 525.326C341.384 526.043 341.034 526.924 340.967 527.848V527.768ZM343.53 530.531C343.249 530.251 343.209 530.331 342.929 529.53C342.649 528.729 342.929 526.006 344.21 526.006C344.407 526.78 344.447 527.585 344.331 528.375C344.214 529.166 343.943 529.927 343.53 530.611V530.531ZM371.36 412.364C371.316 412.217 371.239 412.08 371.136 411.966C371.033 411.854 370.906 411.763 370.763 411.703C370.622 411.643 370.468 411.616 370.312 411.626C370.158 411.633 370.008 411.673 369.874 411.746C369.738 411.82 369.621 411.92 369.528 412.044C369.438 412.167 369.374 412.311 369.344 412.461C369.314 412.611 369.317 412.767 369.354 412.918C369.391 413.068 369.461 413.205 369.558 413.325C369.958 413.966 370.359 414.606 370.799 415.247C370.859 415.384 370.949 415.507 371.063 415.607C371.176 415.707 371.309 415.781 371.456 415.824C371.6 415.867 371.753 415.881 371.9 415.858C372.051 415.837 372.194 415.781 372.321 415.701C372.447 415.618 372.554 415.507 372.634 415.38C372.715 415.254 372.768 415.11 372.784 414.96C372.805 414.809 372.791 414.657 372.744 414.513C372.701 414.369 372.624 414.236 372.521 414.126C372.321 413.565 371.72 412.965 371.36 412.364ZM321.466 327.312C321.706 325.43 323.908 315.86 323.068 315.66C323.021 315.639 322.971 315.633 322.921 315.633C322.87 315.636 322.821 315.65 322.774 315.673C322.727 315.696 322.687 315.727 322.657 315.767C322.623 315.807 322.6 315.85 322.587 315.9C321.453 318.696 320.581 321.589 319.984 324.549C319.757 325.59 319.611 326.648 319.544 327.713C319.55 327.876 319.597 328.036 319.681 328.176C319.764 328.316 319.884 328.43 320.024 328.514C321.029 329.024 322.113 329.365 323.228 329.515C324.109 329.515 327.232 329.755 326.872 328.914C326.511 328.073 326.031 329.595 321.466 327.312ZM339.445 321.506V319.424C339.445 317.982 337.443 317.782 337.403 319.424V321.706C337.393 321.856 337.413 322.01 337.47 322.15C337.523 322.294 337.607 322.42 337.713 322.527C337.823 322.634 337.953 322.714 338.097 322.764C338.24 322.814 338.394 322.834 338.544 322.817C338.695 322.804 338.841 322.754 338.971 322.677C339.102 322.6 339.215 322.497 339.298 322.37C339.385 322.246 339.442 322.103 339.469 321.957C339.495 321.806 339.485 321.653 339.445 321.506ZM342.088 332.558C340.807 337.363 339.085 338.084 337.003 338.324C336.575 338.358 336.149 338.358 335.721 338.324C335.628 338.291 335.521 338.301 335.431 338.344C335.34 338.391 335.274 338.468 335.241 338.564C335.211 338.661 335.217 338.765 335.26 338.855C335.308 338.944 335.388 339.011 335.481 339.045C338.965 341.047 343.73 338.604 342.849 332.558C342.822 332.478 342.772 332.408 342.705 332.358C342.636 332.307 342.552 332.281 342.468 332.281C342.385 332.281 342.301 332.307 342.235 332.358C342.165 332.408 342.115 332.478 342.088 332.558ZM357.144 382.612C357.121 382.482 357.071 382.355 357.001 382.241C356.927 382.131 356.834 382.031 356.723 381.958C356.614 381.881 356.491 381.828 356.36 381.798C356.23 381.771 356.097 381.767 355.963 381.791C355.833 381.814 355.706 381.864 355.593 381.934C355.482 382.008 355.385 382.101 355.309 382.211C355.232 382.321 355.179 382.445 355.149 382.575C355.122 382.705 355.119 382.842 355.142 382.972C355.312 383.716 355.529 384.454 355.783 385.175C355.796 385.328 355.843 385.478 355.92 385.611C355.996 385.745 356.1 385.858 356.227 385.949C356.354 386.035 356.5 386.096 356.651 386.119C356.804 386.146 356.957 386.136 357.108 386.096C357.254 386.052 357.391 385.975 357.508 385.875C357.625 385.772 357.715 385.649 357.778 385.505C357.838 385.365 357.868 385.211 357.861 385.054C357.855 384.901 357.815 384.751 357.745 384.614C357.505 383.933 357.304 383.253 357.144 382.612ZM317.742 315.54C317.772 315.39 317.769 315.232 317.732 315.082C317.695 314.932 317.625 314.796 317.525 314.675C317.428 314.555 317.305 314.461 317.168 314.395C317.028 314.328 316.874 314.295 316.72 314.295C316.568 314.295 316.414 314.328 316.277 314.395C316.136 314.461 316.013 314.555 315.917 314.675C315.82 314.796 315.75 314.932 315.713 315.082C315.673 315.232 315.67 315.39 315.7 315.54V317.822C315.67 317.972 315.673 318.129 315.713 318.279C315.75 318.426 315.82 318.566 315.917 318.686C316.013 318.803 316.136 318.9 316.277 318.967C316.414 319.034 316.568 319.066 316.72 319.066C316.874 319.066 317.028 319.034 317.168 318.967C317.305 318.9 317.428 318.803 317.525 318.686C317.625 318.566 317.695 318.426 317.732 318.279C317.769 318.129 317.772 317.972 317.742 317.822C317.695 317.061 317.695 316.3 317.742 315.54ZM634.283 483.28C634.283 483.28 634.042 483.32 634.283 483.28V483.28Z" fill="black"/>
<path fill-rule="evenodd" clip-rule="evenodd" d="M654.264 480.717C649.82 478.555 639.248 480.357 634.243 481.398C632.404 479.343 630.085 477.778 627.492 476.844C624.9 475.906 622.113 475.628 619.387 476.032C614.902 477.154 613.821 482.68 614.021 487.325C611.138 486.804 608.014 486.444 605.131 486.163C605.372 485.282 606.132 484.041 605.892 483.16C605.762 482.846 605.565 482.562 605.318 482.332C605.068 482.099 604.771 481.925 604.447 481.818C604.124 481.712 603.783 481.675 603.443 481.715C603.106 481.752 602.779 481.862 602.489 482.039C601.691 482.676 600.954 483.387 600.286 484.161C600.286 482.76 601.447 480.517 600.046 480.157C598.644 479.796 594.28 483.721 593.038 485.122C583.842 484.111 574.565 484.111 565.369 485.122C553.329 485.986 541.983 491.078 533.334 499.498C582.026 443.437 603.41 404.916 602.849 356.904C602.288 308.892 545.227 285.988 521.762 285.387C498.977 284.827 475.472 297.4 474.27 297.4C453.688 301.404 399.71 295.438 388.378 300.163C388.518 295.089 387.607 290.041 385.705 285.335C383.803 280.629 380.95 276.366 377.326 272.814C370.839 265.726 360.468 263.083 349.937 263.524C334.92 264.204 320.024 270.491 312.576 283.545C310.107 287.772 308.656 292.515 308.332 297.4C308.332 298.641 305.769 319.063 312.336 334.52C313.818 338.434 316.187 341.951 319.257 344.791C322.33 347.634 326.018 349.723 330.035 350.898C323.561 359.48 317.625 368.453 312.256 377.767C311.015 380.369 311.936 381.771 313.738 381.771C315.539 381.771 317.942 381.29 319.624 381.371C316.981 388.618 310.254 407.519 308.612 415.007C300.38 420.549 292.965 427.223 286.588 434.828C274.575 448.603 268.969 463.539 255.355 471.508L251.35 473.75C256.796 457.212 267.087 424.377 263.363 424.337C259.639 424.297 250.59 455.891 244.824 477.314C238.657 480.717 235.533 482.88 233.371 489.607C232.666 491.309 232.304 493.131 232.304 494.973C232.304 496.815 232.666 498.636 233.371 500.339C233.628 500.882 234.021 501.356 234.512 501.707C235.003 502.057 235.576 502.274 236.175 502.341C236.655 502.341 236.655 501.9 235.334 504.823C234.704 505.003 234.109 505.287 233.571 505.664L214.311 493.932C213.871 493.932 219.396 493.171 102.19 508.427C99.9873 506.786 97.6648 505.064 95.2622 503.182C37.6802 458.373 225.723 410.282 240.779 349.056C254.273 294.237 176.71 283.185 193.929 231.689C211.147 180.194 323.748 194.609 429.742 188.443C535.737 182.276 577.902 75.2809 500.739 19.5407C423.576 -36.1996 344.29 42.9659 325.55 63.1878C306.81 83.4096 285.187 109.878 224.482 107.235C163.777 104.592 84.3305 114.883 55.2191 202.898C41.204 245.024 53.7775 274.576 72.4777 298.001C78.7412 291.628 86.4877 286.909 95.022 284.266C99.9873 283.065 104.913 283.705 106.314 288.631C108.957 297.68 97.9852 311.736 91.6183 318.743C107.636 334.2 123.012 347.254 129.059 360.748C139.15 383.413 90.7774 400.191 70.3554 413.445C49.9334 426.699 18.7398 467.703 37.8804 507.506C39.3184 510.556 40.923 513.523 42.6856 516.396C2.08188 521.642 0.680368 521.642 0.280301 521.882C-0.120131 522.122 -1.2205e-06 522.843 0.280301 523.243H0C3.60352 527.248 109.678 678.851 174.788 755.894L175.949 756.134C190.044 749.363 445.84 625.193 432.225 617.545C432.225 617.545 245.224 513.152 240.779 510.51C241.475 509.315 242.077 508.07 242.581 506.786C242.803 506.769 243.012 506.676 243.173 506.522C243.333 506.368 243.436 506.165 243.463 505.945V503.782C245.945 504.623 249.829 502.221 251.832 500.419C255.836 496.735 261.842 486.484 266.286 485.122C275.149 482.913 283.892 480.24 292.475 477.114C328.153 463.739 342.969 448.763 358.506 424.577C361.075 420.8 363.261 416.775 365.033 412.564C374.099 422.354 385.121 430.133 397.388 435.389C365.033 472.749 370.118 496.454 381.811 509.388C392.502 521.201 409.841 517.037 412.684 516.156C412.684 533.935 418.691 573.417 420.693 577.382C421.734 579.664 418.25 581.386 417.529 585.911C417.152 588.21 417.449 590.569 418.387 592.701C419.325 594.837 420.863 596.649 422.815 597.924C427.26 600.727 434.828 600.887 431.865 596.442C430.877 595.171 429.762 594.006 428.541 592.958C429.702 593.319 430.984 593.799 432.546 594.36C447.161 600.086 449.083 602.689 451.766 601.928C452.127 601.844 452.464 601.681 452.754 601.454C453.044 601.227 453.281 600.937 453.448 600.607C453.768 600.827 454.132 600.98 454.512 601.05C454.896 601.121 455.286 601.11 455.667 601.02C456.044 600.93 456.398 600.76 456.705 600.523C457.015 600.286 457.269 599.986 457.452 599.646C457.589 599.385 457.663 599.098 457.663 598.805C457.663 598.51 457.589 598.224 457.452 597.964C457.96 597.109 458.133 596.095 457.933 595.121C457.933 591.517 444.158 579.744 441.355 577.422C441.755 573.417 443.878 564.528 449.163 540.902C476.473 571.695 568.292 528.889 573.297 526.727C574.138 527.608 608.055 513.152 611.979 511.07C611.578 511.07 654.985 491.449 656.627 484.241C656.627 482.559 655.546 481.478 654.264 480.717ZM499.378 118.167C500.042 118.187 500.669 118.468 501.123 118.948C501.58 119.427 501.83 120.067 501.82 120.73C501.83 121.059 501.776 121.387 501.66 121.695C501.54 122.002 501.363 122.284 501.136 122.523C500.909 122.761 500.636 122.953 500.335 123.084C500.031 123.216 499.708 123.287 499.378 123.293C499.047 123.287 498.72 123.217 498.416 123.085C498.113 122.953 497.835 122.763 497.605 122.525C497.375 122.287 497.195 122.006 497.072 121.698C496.952 121.39 496.891 121.06 496.895 120.73C496.891 120.399 496.952 120.069 497.072 119.761C497.195 119.453 497.375 119.172 497.605 118.934C497.835 118.696 498.113 118.506 498.416 118.374C498.72 118.242 499.047 118.172 499.378 118.167ZM476.753 48.2516C477.077 48.2513 477.397 48.316 477.697 48.4412C477.998 48.5663 478.268 48.7498 478.495 48.981C478.722 49.212 478.902 49.4859 479.022 49.7869C479.143 50.0879 479.202 50.4099 479.196 50.7343C479.239 51.0783 479.212 51.428 479.109 51.76C479.009 52.0921 478.839 52.3988 478.608 52.6593C478.378 52.92 478.098 53.129 477.781 53.2717C477.464 53.4151 477.12 53.4887 476.773 53.4887C476.426 53.4887 476.083 53.4151 475.765 53.2717C475.451 53.129 475.168 52.92 474.938 52.6593C474.711 52.3988 474.541 52.0921 474.437 51.76C474.337 51.428 474.307 51.0783 474.351 50.7343C474.347 50.4133 474.404 50.0946 474.521 49.7962C474.641 49.498 474.814 49.2257 475.038 48.9951C475.261 48.7645 475.529 48.5803 475.822 48.4525C476.116 48.3251 476.433 48.2566 476.753 48.2516ZM401.472 158.731C401.185 158.678 400.928 158.528 400.741 158.305C400.555 158.081 400.454 157.8 400.454 157.509C400.454 157.219 400.555 156.937 400.741 156.714C400.928 156.49 401.185 156.34 401.472 156.288C401.805 156.288 402.129 156.421 402.363 156.657C402.6 156.894 402.733 157.215 402.733 157.549C402.733 157.884 402.6 158.205 402.363 158.441C402.129 158.678 401.805 158.811 401.472 158.811V158.731ZM390.58 48.7321C390.58 47.1304 394.585 46.3295 396.346 46.0893C399.257 45.7046 402.206 45.7046 405.116 46.0893C406.922 42.777 409.141 39.7087 411.723 36.9594C412.564 36.2787 413.325 36.0384 414.086 36.9594C415.898 40.6164 417.062 44.5583 417.529 48.612C423.736 50.2137 432.385 53.177 427.18 56.9011C425.578 58.0623 422.735 59.2636 419.652 60.9054C419.999 64.1365 420.105 67.3887 419.972 70.6358C419.972 72.1174 419.572 74.3599 418.09 74.6402C415.087 75.1607 412.764 70.9962 408.039 66.9118C403.514 69.1543 394.465 74.1196 394.264 69.3545C394.755 65.2897 395.963 61.3444 397.828 57.7019C393.223 53.3372 390.3 51.2148 390.58 48.8122V48.7321ZM386.576 122.372C386.566 125.167 385.838 127.912 384.457 130.342C383.079 132.773 381.097 134.807 378.701 136.249C376.305 137.69 373.579 138.489 370.786 138.569C367.992 138.649 365.223 138.008 362.75 136.707L386.055 118.207C386.412 119.594 386.603 121.019 386.616 122.452L386.576 122.372ZM385.575 116.725C379.168 121.651 370.559 128.738 361.949 136.226C361.302 135.836 360.685 135.394 360.107 134.905C368.477 126.456 376.685 116.926 381.771 110.879C383.446 112.57 384.754 114.587 385.615 116.806L385.575 116.725ZM380.89 110.038C379.288 111.76 365.353 127.457 359.347 134.064C357.638 132.494 356.274 130.585 355.342 128.458C361.429 124.053 369.718 117.927 378.928 110.679L380.369 109.518L380.89 110.038ZM370.359 106.034C373.572 106.03 376.712 106.993 379.368 108.797L373.722 112.801C372.441 113.762 362.71 121.411 355.022 127.417C354.208 124.977 353.981 122.377 354.362 119.832C354.745 117.288 355.723 114.87 357.221 112.776C358.716 110.682 360.685 108.972 362.97 107.786C365.253 106.601 367.786 105.973 370.359 105.954V106.034ZM331.757 99.4669C332.244 99.4509 332.725 99.5805 333.135 99.8389C333.549 100.097 333.873 100.473 334.069 100.918C334.267 101.363 334.326 101.856 334.243 102.335C334.156 102.814 333.932 103.256 333.592 103.606C333.255 103.956 332.821 104.196 332.345 104.298C331.867 104.399 331.373 104.355 330.923 104.172C330.472 103.99 330.085 103.678 329.812 103.274C329.541 102.871 329.394 102.396 329.394 101.91C329.434 101.3 329.708 100.729 330.152 100.313C330.599 99.8965 331.186 99.6657 331.797 99.6671L331.757 99.4669ZM309.693 160.092C310.627 160.123 311.535 160.429 312.296 160.972C313.057 161.514 313.644 162.269 313.981 163.142C314.315 164.015 314.388 164.967 314.188 165.881C313.984 166.795 313.521 167.628 312.846 168.279C312.176 168.929 311.325 169.368 310.407 169.539C309.486 169.71 308.536 169.607 307.674 169.242C306.814 168.877 306.079 168.267 305.562 167.487C305.045 166.707 304.768 165.793 304.768 164.857C304.801 163.575 305.335 162.357 306.256 161.466C307.177 160.575 308.412 160.081 309.693 160.092ZM247.386 148.8C249.108 148.8 249.108 151.883 247.386 151.883C245.664 151.883 245.624 148.8 247.386 148.8ZM84.5307 237.335C84.3414 237.369 84.1463 237.36 83.9599 237.31C83.7735 237.26 83.6002 237.17 83.4524 237.046C83.3046 236.922 83.186 236.767 83.1044 236.592C83.0229 236.417 82.9806 236.227 82.9806 236.034C82.9806 235.841 83.0229 235.65 83.1044 235.475C83.186 235.3 83.3046 235.145 83.4524 235.022C83.6002 234.898 83.7735 234.807 83.9599 234.757C84.1463 234.707 84.3414 234.699 84.5307 234.733C84.7214 234.699 84.9158 234.707 85.1029 234.757C85.2886 234.807 85.4619 234.898 85.6097 235.022C85.7575 235.145 85.8761 235.3 85.9577 235.475C86.0399 235.65 86.0814 235.841 86.0814 236.034C86.0814 236.227 86.0399 236.417 85.9577 236.592C85.8761 236.767 85.7575 236.922 85.6097 237.046C85.4619 237.17 85.2886 237.26 85.1029 237.31C84.9158 237.36 84.7214 237.369 84.5307 237.335ZM170.623 394.545C170.086 394.481 169.577 394.267 169.159 393.921C168.742 393.577 168.433 393.116 168.27 392.602C168.108 392.085 168.099 391.531 168.243 391.011C168.388 390.487 168.682 390.02 169.087 389.659C169.493 389.302 169.994 389.069 170.529 388.989C171.065 388.909 171.613 388.985 172.106 389.209C172.599 389.432 173.016 389.796 173.307 390.254C173.599 390.707 173.751 391.241 173.747 391.782C173.696 392.559 173.338 393.287 172.754 393.804C172.169 394.324 171.404 394.588 170.623 394.545ZM180.114 126.736C180.663 126.728 181.2 126.883 181.66 127.182C182.119 127.481 182.48 127.909 182.695 128.414C182.91 128.918 182.971 129.474 182.869 130.013C182.767 130.551 182.507 131.048 182.122 131.438C181.737 131.828 181.245 132.095 180.708 132.205C180.171 132.315 179.613 132.263 179.106 132.055C178.599 131.847 178.165 131.493 177.86 131.038C177.555 130.583 177.391 130.047 177.391 129.499C177.391 128.773 177.677 128.076 178.186 127.56C178.696 127.042 179.389 126.746 180.114 126.736ZM182.436 270.531C182.433 270.922 182.317 271.304 182.103 271.631C181.888 271.958 181.584 272.217 181.227 272.376C180.87 272.536 180.475 272.589 180.088 272.53C179.702 272.471 179.34 272.304 179.046 272.046C178.752 271.787 178.539 271.45 178.431 271.074C178.324 270.698 178.326 270.299 178.438 269.924C178.551 269.55 178.769 269.216 179.066 268.961C179.363 268.706 179.726 268.542 180.114 268.489C180.395 268.466 180.678 268.503 180.945 268.595C181.212 268.688 181.456 268.836 181.663 269.027C181.87 269.219 182.035 269.451 182.147 269.711C182.26 269.969 182.317 270.249 182.316 270.531H182.436ZM183.357 329.675C185.76 327.793 192.847 321.947 194.97 323.789C197.092 325.63 195.25 329.515 194.97 335.041C199.414 337.163 208.624 341.207 205.02 343.77C201.492 345.495 197.704 346.63 193.808 347.134C193.128 352.94 193.168 355.903 191.206 356.904C189.844 357.545 186.841 355.102 185.72 354.061C183.566 352.222 181.679 350.093 180.114 347.734C176.457 348.175 172.76 348.175 169.102 347.734C168.141 347.494 167.42 347.054 167.62 346.093C168.061 343.89 173.026 339.205 174.668 337.643C173.627 335.361 171.184 329.635 172.025 327.352C173.226 324.189 178.392 327.673 183.237 329.675H183.357ZM170.343 200.656C171.184 200.656 171.624 201.257 171.504 202.298C170.667 205.269 169.399 208.102 167.74 210.707C169.458 212.504 170.926 214.525 172.105 216.713C176.109 224.441 170.543 222.479 162.294 220.717C160.35 223.609 157.877 226.109 155.007 228.085C151.283 229.927 150.442 222.079 149.801 217.634C144.155 216.153 139.67 216.353 138.509 214.07C137.348 211.788 145.997 208.304 148.48 207.183C148.199 203.179 146.477 197.813 149.921 197.973C153.411 199.027 156.616 200.862 159.291 203.339C162.811 201.865 166.541 200.959 170.343 200.656ZM119.328 312.536C118.882 312.608 118.425 312.583 117.99 312.461C117.554 312.339 117.15 312.124 116.805 311.831C116.461 311.538 116.184 311.173 115.994 310.763C115.805 310.352 115.707 309.905 115.707 309.453C115.707 309 115.805 308.554 115.994 308.143C116.184 307.733 116.461 307.368 116.805 307.074C117.15 306.781 117.554 306.566 117.99 306.445C118.425 306.323 118.882 306.297 119.328 306.37C119.775 306.297 120.232 306.323 120.668 306.445C121.103 306.566 121.507 306.781 121.852 307.074C122.196 307.368 122.473 307.733 122.663 308.143C122.852 308.554 122.95 309 122.95 309.453C122.95 309.905 122.852 310.352 122.663 310.763C122.473 311.173 122.196 311.538 121.852 311.831C121.507 312.124 121.103 312.339 120.668 312.461C120.232 312.583 119.775 312.608 119.328 312.536ZM96.7438 191.566C96.5968 191.529 96.4657 191.445 96.3718 191.324C96.2786 191.205 96.2276 191.057 96.2276 190.905C96.2276 190.753 96.2786 190.605 96.3718 190.486C96.4657 190.366 96.5968 190.281 96.7438 190.245C105.513 189.644 115.484 189.364 124.253 189.364C116.945 184.237 109.122 179.889 100.908 176.39C100.735 176.336 100.588 176.219 100.496 176.061C100.405 175.903 100.378 175.717 100.418 175.54C100.458 175.362 100.565 175.207 100.715 175.105C100.865 175.002 101.049 174.961 101.229 174.988C110.332 175.085 119.285 177.306 127.377 181.475C122.055 176.171 116.425 171.183 110.519 166.539C110.393 166.436 110.307 166.292 110.278 166.131C110.249 165.971 110.278 165.806 110.36 165.665C110.443 165.525 110.573 165.419 110.727 165.366C110.881 165.313 111.049 165.317 111.199 165.378C121.294 168.632 130.769 173.56 139.23 179.954C147.583 186.074 154.827 193.576 160.653 202.137C160.653 202.498 160.292 202.778 160.052 202.418C154.231 193.912 146.999 186.464 138.669 180.394C131.249 174.951 123.074 170.621 114.403 167.54C117.326 169.903 129.179 179.553 130.74 183.117C131.061 183.758 130.26 184.358 129.579 183.958C125.303 181.576 120.76 179.708 116.045 178.392C112.371 177.293 108.581 176.621 104.752 176.39C109.357 178.592 123.653 185.6 126.576 189.764C126.652 189.876 126.693 190.006 126.698 190.14C126.703 190.274 126.671 190.407 126.604 190.524C126.537 190.639 126.44 190.735 126.321 190.799C126.203 190.864 126.07 190.893 125.935 190.885C125.495 190.885 114.443 190.885 102.71 191.286C116.565 193.929 134.745 199.014 146.317 207.303C146.638 207.543 146.317 208.024 145.917 207.784C133.343 199.014 111.6 193.568 96.7438 191.566ZM323.468 274.255C337.123 263.964 364.192 261.241 376.045 274.255C379.535 277.658 382.278 281.752 384.1 286.275C385.919 290.798 386.776 295.651 386.616 300.523C385.682 309.354 381.887 317.639 375.804 324.109C375.084 324.83 375.084 324.109 375.324 323.748C376.015 322.758 376.468 321.626 376.658 320.435C376.849 319.243 376.769 318.025 376.422 316.871C376.074 315.717 375.474 314.655 374.66 313.766C373.846 312.876 372.841 312.183 371.72 311.736C364.152 308.292 361.869 320.986 356.343 322.547C351.538 323.949 353.34 312.737 353.701 305.249C354.204 301.956 353.447 298.596 351.578 295.838C348.251 292.269 344.14 289.527 339.565 287.83C331.547 284.6 322.84 283.456 314.258 284.506C316.601 280.5 319.734 277.012 323.468 274.255ZM313.978 333.959C307.371 318.343 310.254 297.6 310.254 297.6C310.578 293.388 311.792 289.294 313.818 285.587C322.471 284.708 331.203 286.088 339.165 289.592C343.496 291.213 347.401 293.801 350.577 297.16C354.582 302.445 350.577 312.536 351.859 320.425C352.339 323.508 353.781 325.47 356.784 324.429C362.991 322.667 365.073 310.895 371.039 313.618C377.006 316.34 375.925 324.149 368.877 327.112C366.154 328.273 366.394 330.876 368.477 331.116C369.558 331.116 371.68 330.516 374.923 327.913C379.675 323.271 383.409 317.695 385.895 311.535C391.465 312.711 396.85 314.622 401.913 317.221C409.04 320.465 417.449 324.99 424.096 328.874C413.965 331.29 404.732 336.535 397.471 344.004C390.21 351.469 385.225 360.845 383.092 371.039C381.571 371.039 381.691 368.877 380.65 368.076C379.608 367.275 378.968 368.076 377.726 368.477C377.753 367.489 377.533 366.515 377.086 365.634C377.086 363.311 373.282 364.673 371.079 365.393C371.106 364.399 370.956 363.411 370.639 362.47C371.56 359.507 366.194 360.989 363.191 361.829C363.418 360.692 363.418 359.524 363.191 358.386C363.471 356.063 358.386 357.545 356.263 358.386C356.447 357.048 356.364 355.686 356.023 354.381C354.902 352.82 348.975 356.103 348.735 354.622C348.756 353.524 348.972 352.439 349.376 351.418C350.057 348.976 346.733 350.497 345.772 350.337C345.736 350.357 345.696 350.371 345.652 350.371C345.608 350.371 345.568 350.357 345.532 350.337V349.857C348.882 348.939 352.099 347.594 355.102 345.852C356.63 348.101 358.919 349.723 361.549 350.417C363.939 351.128 366.481 351.134 368.873 350.437C371.266 349.736 373.405 348.358 375.033 346.473C376.662 344.588 377.71 342.268 378.053 339.802C378.397 337.333 378.02 334.817 376.966 332.558C376.966 332.117 376.085 332.558 376.285 332.838C376.805 334.373 377.006 335.995 376.882 337.61C376.759 339.225 376.308 340.797 375.56 342.235C374.81 343.67 373.779 344.941 372.527 345.969C371.276 346.997 369.831 347.76 368.276 348.215L358.586 342.248C358.225 342.008 358.266 342.248 356.143 343.61C354.812 340.98 354.455 337.967 355.136 335.097C355.819 332.231 357.495 329.702 359.867 327.953C362.667 326.078 365.994 325.15 369.357 325.31C369.438 325.283 369.507 325.233 369.558 325.163C369.608 325.097 369.634 325.013 369.634 324.929C369.634 324.846 369.608 324.763 369.558 324.696C369.507 324.626 369.438 324.576 369.357 324.549C365.754 324.112 362.103 324.886 358.986 326.752C356.156 328.63 354.124 331.496 353.29 334.79C352.453 338.08 352.87 341.568 354.461 344.571C347.364 348.609 339.222 350.437 331.076 349.817C327.172 348.719 323.585 346.71 320.612 343.953C317.638 341.193 315.366 337.77 313.978 333.959ZM376.325 369.518C377.376 369.291 378.401 368.944 379.368 368.477C381.13 367.836 380.65 371.36 382.892 371.4C382.492 373.282 382.251 374.763 382.131 375.684C380.249 375.004 378.487 374.243 376.725 373.522C376.802 372.174 376.669 370.822 376.325 369.518ZM376.325 368.637C376.325 368.637 376.325 368.437 376.725 367.075C376.825 367.579 377.029 368.056 377.326 368.477L376.325 368.597V368.637ZM375.924 369.398C375.721 370.726 375.721 372.074 375.924 373.402C373.121 372.241 370.519 371.039 367.916 369.838C367.916 369.08 367.766 368.333 367.475 367.636C369.317 367.636 375.484 364.673 375.764 365.553C376.045 366.434 374.603 368.597 375.924 369.398ZM367.075 367.355C367.068 367.979 367.162 368.603 367.355 369.197C366.314 368.717 362.03 366.555 360.948 365.994C360.929 365.14 360.795 364.289 360.548 363.471C362.947 363.141 365.32 362.617 367.636 361.91C367.916 361.91 369.718 361.669 369.558 361.91C369.397 363.071 365.313 366.434 367.075 367.355ZM360.067 365.513C358.025 364.432 356.063 363.391 354.542 362.43C354.568 361.579 354.418 360.735 354.101 359.947C354.748 360.057 355.409 359.944 355.983 359.627C357.825 358.789 359.81 358.312 361.829 358.226C360.982 359.203 360.257 360.278 359.667 361.429C359.51 362.804 359.647 364.195 360.067 365.513ZM353.62 361.91L349.176 359.227C349.266 358.038 349.146 356.847 348.815 355.703C350.097 355.983 353.42 354.662 354.942 354.782C354.217 355.763 353.564 356.794 352.98 357.865C352.98 359.24 353.197 360.605 353.62 361.91ZM355.342 356.103C355.243 356.901 355.243 357.708 355.342 358.506C355.062 358.506 354.141 358.946 354.061 358.506C353.981 358.065 354.862 356.584 355.342 356.103ZM362.39 359.547C362.367 360.331 362.46 361.115 362.67 361.87C362.056 362.097 361.406 362.22 360.748 362.23C360.748 362.23 360.588 361.669 362.39 359.547ZM370.078 363.551C370.131 364.209 370.278 364.856 370.519 365.473C369.721 365.777 368.907 366.03 368.076 366.234C368.557 365.513 369.197 364.592 370.078 363.511V363.551ZM348.014 355.222C347.995 356.424 348.145 357.625 348.455 358.786C347.774 358.369 347.104 357.929 346.453 357.465L345.532 350.738C346.533 350.738 348.615 350.137 348.615 350.738C348.615 351.338 346.933 353.981 348.014 355.182V355.222ZM356.584 344.411C357.144 344.05 357.745 343.61 358.306 343.169L367.115 348.575C365.159 348.969 363.134 348.802 361.272 348.091C359.41 347.384 357.785 346.162 356.584 344.571V344.411ZM313.698 379.969C312.736 379.689 318.262 371.119 318.903 370.118C320.865 366.955 330.355 352.299 331.156 351.098C334.467 351.292 337.787 351.091 341.047 350.497C341.688 374.203 345.972 384.053 351.178 393.303C348.495 392.462 345.772 393.704 343.409 392.863C340.086 391.742 340.206 386.937 335.401 386.656C332.261 387.027 329.241 388.077 326.551 389.74C325.47 390.18 325.23 389.74 324.95 389.259C324.553 386.549 323.965 383.873 323.188 381.25C321.346 378.087 315.58 380.61 313.698 379.969ZM213.871 494.973L232.77 506.385C231.67 507.426 230.477 508.364 229.207 509.188C226.123 510.83 222.92 509.589 222.88 512.031C205.621 518.638 179.633 549.111 212.028 576.941C253.433 612.459 300.563 626.635 256.716 660.511C244.703 669.921 232.33 668.52 218.034 659.27C202.338 648.979 202.498 603.65 187.442 575.66C162.415 529.09 152.083 544.786 103.711 509.789L213.871 494.973ZM269.49 663.154C269.437 663.154 269.387 663.144 269.336 663.124C269.29 663.104 269.243 663.074 269.206 663.037C269.17 663 269.14 662.954 269.119 662.907C269.1 662.857 269.089 662.807 269.089 662.754C269.089 662.7 269.1 662.65 269.119 662.6C269.14 662.55 269.17 662.507 269.206 662.47C269.243 662.433 269.29 662.403 269.336 662.383C269.387 662.363 269.437 662.353 269.49 662.353C269.57 662.379 269.64 662.43 269.69 662.499C269.74 662.566 269.767 662.65 269.767 662.733C269.767 662.817 269.74 662.9 269.69 662.967C269.64 663.037 269.57 663.087 269.49 663.114V663.154ZM248.988 675.167C248.82 675.197 248.648 675.194 248.483 675.15C248.317 675.107 248.164 675.026 248.032 674.92C247.901 674.809 247.795 674.673 247.722 674.52C247.65 674.366 247.613 674.196 247.613 674.025C247.613 673.856 247.65 673.685 247.722 673.532C247.795 673.378 247.901 673.241 248.032 673.131C248.164 673.021 248.317 672.944 248.483 672.901C248.648 672.857 248.82 672.855 248.988 672.884C249.313 672.884 249.623 673.015 249.852 673.241C250.081 673.472 250.21 673.782 250.21 674.105C250.21 674.429 250.081 674.74 249.852 674.97C249.623 675.197 249.313 675.327 248.988 675.327V675.167ZM197.412 672.364C197.823 671.176 198.432 670.065 199.214 669.08C197.412 666.598 196.332 665.356 199.455 665.517C200.37 665.583 201.272 665.774 202.137 666.077C205.341 662.553 205.902 662.794 205.782 667.599C206.583 667.999 208.464 668.96 208.825 669.761C209.185 670.562 207.143 671.042 205.701 671.483C205.701 672.444 205.341 675.487 204.42 675.487C203.499 675.487 202.979 674.006 201.778 672.484C200.136 672.924 197.212 673.966 197.412 672.524V672.364ZM196.892 621.349C196.724 621.379 196.552 621.376 196.386 621.332C196.221 621.289 196.068 621.208 195.936 621.102C195.805 620.991 195.699 620.855 195.626 620.702C195.554 620.548 195.516 620.378 195.516 620.207C195.516 620.038 195.554 619.867 195.626 619.714C195.699 619.56 195.805 619.423 195.936 619.313C196.068 619.203 196.221 619.126 196.386 619.083C196.552 619.04 196.724 619.037 196.892 619.067C197.216 619.067 197.527 619.197 197.756 619.423C197.985 619.654 198.113 619.964 198.113 620.287C198.113 620.611 197.985 620.922 197.756 621.152C197.527 621.379 197.216 621.509 196.892 621.509V621.349ZM148.52 563.286C148.352 563.316 148.18 563.313 148.014 563.27C147.849 563.226 147.695 563.146 147.564 563.04C147.433 562.929 147.327 562.793 147.254 562.639C147.182 562.486 147.144 562.315 147.144 562.145C147.144 561.975 147.182 561.805 147.254 561.651C147.327 561.498 147.433 561.361 147.564 561.251C147.695 561.141 147.849 561.064 148.014 561.021C148.18 560.977 148.352 560.974 148.52 561.004C148.688 560.974 148.86 560.977 149.026 561.021C149.191 561.064 149.344 561.141 149.476 561.251C149.607 561.361 149.713 561.498 149.786 561.651C149.858 561.805 149.896 561.975 149.896 562.145C149.896 562.315 149.858 562.486 149.786 562.639C149.713 562.793 149.607 562.929 149.476 563.04C149.344 563.146 149.191 563.226 149.026 563.27C148.86 563.313 148.688 563.316 148.52 563.286ZM132.502 538.299C132.335 538.329 132.162 538.326 131.997 538.283C131.832 538.239 131.678 538.159 131.546 538.053C131.415 537.942 131.31 537.805 131.237 537.652C131.165 537.499 131.127 537.328 131.127 537.158C131.127 536.988 131.165 536.818 131.237 536.664C131.31 536.511 131.415 536.374 131.546 536.264C131.678 536.154 131.832 536.077 131.997 536.034C132.162 535.99 132.335 535.984 132.502 536.017C132.668 535.977 132.84 535.977 133.007 536.01C133.173 536.047 133.329 536.117 133.466 536.217C133.602 536.321 133.713 536.451 133.793 536.601C133.873 536.751 133.92 536.918 133.929 537.084C133.937 537.255 133.909 537.425 133.845 537.582C133.782 537.742 133.683 537.882 133.559 537.999C133.435 538.112 133.286 538.199 133.125 538.253C132.963 538.306 132.791 538.319 132.622 538.299H132.502ZM85.5318 530.291C85.6999 530.261 85.8725 530.264 86.0378 530.308C86.203 530.351 86.3566 530.428 86.4884 530.538C86.6195 530.648 86.725 530.785 86.7978 530.938C86.8706 531.092 86.9085 531.262 86.9085 531.432C86.9085 531.602 86.8706 531.772 86.7978 531.926C86.725 532.079 86.6195 532.216 86.4884 532.327C86.3566 532.433 86.203 532.513 86.0378 532.557C85.8725 532.6 85.6999 532.603 85.5318 532.573C85.3636 532.593 85.1925 532.58 85.0309 532.527C84.8685 532.473 84.7207 532.386 84.5962 532.273C84.4717 532.156 84.3741 532.016 84.3101 531.856C84.2467 531.699 84.2183 531.529 84.2263 531.358C84.2358 531.191 84.2817 531.025 84.3618 530.875C84.4419 530.725 84.554 530.594 84.6894 530.491C84.8255 530.391 84.9821 530.321 85.1488 530.284C85.3148 530.251 85.4874 530.251 85.6519 530.291H85.5318ZM59.1433 450.205C60.7997 448.87 62.6868 447.852 64.7093 447.201C64.7093 441.996 64.3089 439.193 68.4333 442.276C69.6383 443.257 70.7151 444.388 71.6368 445.64C73.4962 445.076 75.422 444.769 77.363 444.719C77.9236 444.719 78.284 445.039 78.2439 445.6C77.5603 447.665 76.5308 449.6 75.2006 451.326C76.3561 453.121 77.0695 455.166 77.2829 457.292C76.9225 459.254 73.8392 457.533 71.3565 456.812C70.2753 458.093 66.9518 462.338 65.7104 461.377C64.4691 460.416 65.1498 457.933 64.9896 454.569C62.547 453.688 57.5817 452.087 59.2635 450.205H59.1433ZM44.4075 485.523C44.5756 485.489 44.7482 485.496 44.9135 485.539C45.0787 485.582 45.2323 485.66 45.3641 485.77C45.4952 485.879 45.6008 486.016 45.6736 486.17C45.7464 486.324 45.7842 486.494 45.7842 486.664C45.7842 486.834 45.7464 487.004 45.6736 487.158C45.6008 487.311 45.4952 487.448 45.3641 487.558C45.2323 487.665 45.0787 487.745 44.9135 487.788C44.7482 487.832 44.5756 487.835 44.4075 487.805C44.2393 487.825 44.0682 487.812 43.9066 487.759C43.7442 487.705 43.5964 487.618 43.4719 487.504C43.3474 487.388 43.2499 487.247 43.1858 487.087C43.1224 486.931 43.094 486.76 43.1021 486.59C43.1115 486.423 43.1574 486.257 43.2375 486.107C43.3176 485.957 43.4297 485.826 43.5651 485.723C43.7013 485.622 43.8578 485.553 44.0245 485.516C44.1905 485.483 44.3631 485.483 44.5276 485.523H44.4075ZM430.623 618.506C415.968 637.606 197.132 743.801 175.829 754.088C125.815 694.708 47.9713 586.431 2.32214 523.243L43.5666 517.838C69.2742 558.401 108.677 548.991 129.819 561.885C153.605 576.421 165.858 587.392 173.066 615.583C182.877 653.904 170.504 670.442 199.175 682.655C226.644 694.308 281.182 689.622 303.286 651.702C325.39 613.781 282.103 597.203 243.222 579.624C204.34 562.045 211.187 537.699 216.473 530.811C220.509 525.572 225.191 520.86 230.408 516.796C232.382 516.803 234.322 516.293 236.036 515.315C237.75 514.341 239.178 512.932 240.178 511.23C244.863 513.753 422.575 613.901 430.744 618.506H430.623ZM282.464 665.717C282.517 665.717 282.567 665.727 282.617 665.747C282.668 665.767 282.711 665.797 282.748 665.833C282.784 665.87 282.814 665.913 282.834 665.964C282.854 666.014 282.864 666.064 282.864 666.117C282.864 666.17 282.854 666.221 282.834 666.271C282.814 666.317 282.784 666.364 282.748 666.4C282.711 666.438 282.668 666.467 282.617 666.488C282.567 666.507 282.517 666.518 282.464 666.518C282.411 666.514 282.36 666.501 282.314 666.48C282.264 666.457 282.224 666.424 282.187 666.387C282.15 666.347 282.124 666.301 282.107 666.25C282.09 666.2 282.08 666.151 282.084 666.097C282.087 666.044 282.1 665.993 282.123 665.944C282.144 665.897 282.177 665.854 282.217 665.82C282.253 665.784 282.3 665.757 282.35 665.74C282.401 665.723 282.451 665.713 282.504 665.717H282.464ZM292.715 625.153C292.234 625.473 291.514 625.153 290.392 624.592C288.631 626.555 287.79 627.115 287.99 623.792C286.268 623.231 285.307 622.951 286.909 622.03C287.389 621.769 287.9 621.566 288.43 621.429C288.871 618.666 289.231 618.626 290.753 620.949C291.49 620.768 292.258 620.768 292.995 620.949C293.556 621.269 292.635 622.03 291.994 622.791C292.234 623.351 293.195 624.873 292.755 625.153H292.715ZM233.611 514.394C232.067 514.904 230.41 514.967 228.83 514.577C227.251 514.187 225.813 513.363 224.682 512.191H225.042C232.61 511.03 231.489 507.907 235.413 505.985C235.774 506.385 235.413 506.265 241.78 506.746C240.172 510.272 237.237 513.022 233.611 514.394ZM242.861 498.376C242.282 499.454 242.058 500.689 242.221 501.9C242.221 502.181 241.94 503.462 241.78 504.663L237.455 504.303C237.455 504.103 240.298 497.335 240.499 496.695H243.222L242.861 498.376ZM242.061 487.124C239.298 492.29 238.057 501.9 235.614 500.218C234.761 499.334 234.275 498.163 234.253 496.935C234.124 494.626 234.451 492.313 235.214 490.128C235.867 487.835 237.016 485.713 238.58 483.914C240.143 482.115 242.084 480.68 244.263 479.716C242.141 487.885 242.742 486.043 242.061 487.285V487.124ZM244.943 493.171C245.584 491.289 246.466 488.526 247.707 484.922C248.228 484.642 248.347 484.922 249.028 486.604C250.109 489.407 243.782 496.535 243.782 496.535C244.183 495.373 244.623 494.252 244.943 493.331V493.171ZM358.025 423.776C343.89 445.039 333.399 454.569 316.901 463.819C300.82 472.375 283.718 478.859 266.006 483.12C258.878 485.322 252.913 501.139 245.104 501.86C244.223 501.86 243.622 501.86 244.343 499.858C246.145 494.853 252.672 490.688 250.79 485.923C250.551 485.205 250.229 484.522 249.829 483.881C249.505 483.357 249.01 482.96 248.427 482.76C248.667 481.959 249.468 479.636 250.549 476.353C251.47 475.712 252.111 475.512 256.316 473.029C270.411 464.7 275.937 449.764 287.79 435.789C294.049 428.131 301.358 421.39 309.493 415.768C310.094 415.407 309.093 416.008 313.738 401.352C316.42 392.903 319.544 383.973 320.465 381.33C320.638 381.354 320.806 381.417 320.949 381.514C321.095 381.611 321.219 381.741 321.306 381.891C322.347 383.853 322.147 387.617 323.028 389.9C325.11 394.945 330.275 388.178 335.04 388.298C339.045 388.298 339.045 392.903 343.049 394.064C346.052 394.945 349.056 393.103 351.859 394.425C355.532 400.668 359.854 406.507 364.753 411.843C362.934 416.094 360.678 420.149 358.025 423.936V423.776ZM382.612 425.058C370.492 416.392 360.361 405.239 352.9 392.342C347.974 383.773 343.409 374.203 341.848 350.177C342.792 350.013 343.73 349.796 344.651 349.536L345.492 357.545C349.903 360.885 354.562 363.882 359.427 366.515C359.427 366.515 356.023 385.775 371.44 410.562C378.848 422.735 382.612 425.218 382.612 425.218V425.058ZM457.052 476.713C457.773 485.443 449.844 533.094 448.763 539.581C448.7 539.604 448.643 539.641 448.593 539.691C448.546 539.737 448.506 539.798 448.483 539.861C449.003 537.899 439.994 568.212 439.313 577.702C439.313 578.463 439.313 578.102 446.16 584.029C448.483 586.071 456.451 592.838 456.852 595.201C457.035 595.815 457.035 596.469 456.852 597.083C453.275 593.292 449.007 590.222 444.278 588.033C444.194 587.98 444.091 587.963 443.994 587.986C443.894 588.006 443.811 588.067 443.758 588.153C443.704 588.236 443.688 588.34 443.711 588.436C443.734 588.537 443.794 588.621 443.878 588.674L447.121 591.317C450.365 593.519 453.348 596.085 456.011 598.965C455.61 599.966 454.729 600.046 453.688 599.766C453.688 597.683 444.558 592.638 441.675 590.916C441.235 590.676 440.834 591.317 441.275 591.557C445.296 593.879 449.043 596.645 452.447 599.806C451.166 602.689 447.281 598.564 433.146 592.758C430.6 591.614 427.904 590.83 425.138 590.436C424.95 590.423 424.764 590.469 424.607 590.573C424.447 590.672 424.324 590.819 424.257 590.996C423.896 592.037 425.017 591.997 428.621 595.641C429.389 596.312 430.05 597.096 430.583 597.964C428.184 598.247 425.761 597.68 423.736 596.362C422.131 595.287 420.866 593.783 420.086 592.017C419.304 590.252 419.044 588.3 419.331 586.391C420.012 582.387 423.976 580.345 422.335 576.781C420.693 573.217 417.329 550.072 416.849 546.749C412.404 516.676 414.086 516.036 413.245 515.795C413.245 474.07 414.566 473.91 414.246 471.748C414.246 471.307 405.276 409.721 405.196 409.241C407.839 409.241 409.721 412.164 411.203 414.566C413.365 418.01 415.207 420.252 419.531 418.931C423.856 417.61 427.54 413.966 431.544 412.524C435.549 411.083 437.671 412.524 442.036 413.926C443.718 414.729 445.616 414.957 447.442 414.573C449.264 414.189 450.912 413.215 452.127 411.803C459.094 405.997 455.811 404.555 470.066 410.162C467.303 420.933 461.096 451.366 460.976 451.846C458.447 459.895 457.125 468.274 457.052 476.713ZM404.716 407.278C401.575 408.413 398.512 409.748 395.546 411.283C394.865 411.283 394.585 411.283 394.384 410.482C393.143 404.756 407.719 336.963 444.038 334.4C460.616 333.279 472.068 363.031 477.073 378.888C480.367 388.965 482.923 399.273 484.722 409.721C485.443 416.969 464.3 403.394 458.213 404.796C455.811 405.356 454.729 407.399 451.286 410.282C447.842 413.165 446.08 413.165 443.037 412.084C439.443 410.115 435.228 409.597 431.264 410.642C427.02 412.164 423.496 415.728 419.251 417.049C415.647 418.21 414.526 415.728 412.484 412.524C410.442 409.321 408.359 406.598 404.716 407.118V407.278ZM464.38 445.079C466.062 438.432 469.025 424.657 471.227 410.242C474.911 411.683 482.96 415.207 485.643 412.644C486.043 412.217 486.33 411.696 486.484 411.133C486.637 410.565 486.65 409.971 486.524 409.401C485.072 400.948 483.067 392.602 480.517 384.414C475.151 366.595 462.618 332.358 443.958 333.519C406.077 336.162 391.301 404.515 392.582 410.682C392.619 411.079 392.746 411.46 392.956 411.8C393.163 412.14 393.447 412.427 393.784 412.641C394.121 412.851 394.501 412.984 394.898 413.028C395.292 413.072 395.693 413.021 396.066 412.884C398.349 412.324 401.592 409.841 404.555 409.16C404.996 416.448 405.837 426.139 407.599 438.672C400.844 436.016 394.321 432.799 388.098 429.062C375.534 416.859 366.678 401.355 362.55 384.334C361.142 378.764 360.338 373.058 360.148 367.315C367.419 371.376 374.967 374.92 382.732 377.927C382.862 377.977 382.999 377.997 383.139 377.984C383.276 377.97 383.409 377.927 383.526 377.85C383.643 377.777 383.74 377.676 383.813 377.556C383.883 377.44 383.923 377.303 383.933 377.166C385.398 365.853 390.193 355.233 397.708 346.653C405.366 338.167 415.54 332.358 426.739 330.075C426.919 330.045 427.087 329.958 427.216 329.831C427.346 329.702 427.433 329.534 427.464 329.354C427.496 329.174 427.47 328.988 427.39 328.824C427.31 328.657 427.18 328.52 427.02 328.434C419.087 323.855 410.905 319.724 402.513 316.06C397.314 313.644 391.862 311.818 386.256 310.614C387.34 307.627 388.068 304.523 388.418 301.364C396.427 297.961 436.83 302.966 464.059 300.123C468.184 299.867 472.275 299.211 476.273 298.161C500.819 297.48 537.779 327.673 544.586 341.287C551.393 354.902 550.312 371.92 535.216 393.103C521.001 412.924 469.906 441.836 464.42 444.919L464.38 445.079ZM573.337 525.926C578.903 508.387 570.094 491.97 566.93 486.884L593.439 486.163C596.853 488.182 599.455 491.325 600.807 495.053C602.979 500.636 604.133 506.562 604.21 512.552C596.282 516.116 581.586 522.843 573.337 525.766V525.926ZM605.932 511.471C605.712 505.604 604.354 499.838 601.928 494.492C600.323 490.722 597.503 487.592 593.919 485.603C595.517 483.887 597.453 482.522 599.605 481.598C599.605 482.88 598.044 485.603 599.926 485.883C601.808 486.163 602.008 484.321 603.169 483.721C603.65 483.48 604.611 483.44 604.21 484.482C603.81 485.523 602.929 487.084 603.85 488.486C604.527 489.283 605.462 489.82 606.493 490.008C606.733 490.008 605.131 491.129 604.691 492.41C604.588 492.714 604.604 493.044 604.737 493.334C604.871 493.628 605.115 493.855 605.412 493.972C606.773 494.492 609.136 493.131 610.617 494.612C611.218 495.253 610.898 495.854 610.137 496.294C608.295 497.456 608.055 498.817 609.776 500.299C610.641 500.899 611.412 501.63 612.059 502.461C610.801 502.451 609.576 502.861 608.575 503.622C608.385 503.769 608.231 503.956 608.124 504.17C608.017 504.386 607.961 504.623 607.961 504.863C607.961 505.104 608.017 505.34 608.124 505.554C608.231 505.771 608.385 505.958 608.575 506.105C609.456 506.866 611.618 507.667 612.099 508.347C610.194 509.618 608.118 510.616 605.932 511.31V511.471ZM654.505 483.761C652.863 490.448 616.824 506.585 614.261 507.787C613.821 506.225 611.298 505.464 610.257 504.703C611.378 504.103 613.621 504.343 614.061 502.941C614.501 501.54 611.378 499.217 610.657 498.296C611.338 497.656 613.781 496.495 612.7 494.292C612.209 493.464 611.468 492.813 610.581 492.43C609.696 492.05 608.715 491.959 607.774 492.17H607.174C608.055 491.049 609.496 489.607 608.175 488.646C606.853 487.685 605.972 488.646 605.292 487.325C609.096 487.805 612.219 488.326 614.622 488.846C614.702 488.856 614.785 488.853 614.862 488.829C614.938 488.806 615.012 488.766 615.072 488.713C615.132 488.659 615.182 488.593 615.212 488.519C615.246 488.446 615.262 488.366 615.262 488.286C615.262 489.887 614.141 479.036 619.827 477.754C622.367 477.487 624.932 477.848 627.299 478.802C629.668 479.759 631.763 481.285 633.402 483.24C633.495 483.357 633.622 483.447 633.762 483.494C633.906 483.544 634.056 483.554 634.203 483.521C635.684 483.24 647.978 480.717 652.903 482.519C653.463 482.479 654.625 483.04 654.505 483.601V483.761Z" fill="black"/>
</svg>
