<svg width="100" height="100" viewBox="0 0 100 100" fill="none" xmlns="http://www.w3.org/2000/svg">
<g clip-path="url(#clip0_150_62)">
<path d="M12.5 37.5C12.4998 31.3076 14.0331 25.2115 16.963 19.7561C19.8929 14.3006 24.1282 9.65564 29.2907 6.23588C34.4532 2.81612 40.3822 0.728024 46.5483 0.158043C52.7145 -0.411938 58.9258 0.553936 64.6277 2.96942C70.3296 5.38491 75.3446 9.17482 79.2248 14.0007C83.1051 18.8267 85.7299 24.5384 86.8648 30.6259C87.9997 36.7135 87.6095 42.9873 85.7289 48.8873C83.8483 54.7872 80.5359 60.1297 76.0875 64.4375C74.8188 65.6625 73.8438 66.9375 73.2563 68.3063L68.4938 79.3625C68.2521 79.9229 67.8517 80.4002 67.3419 80.7356C66.8321 81.0711 66.2353 81.2499 65.625 81.25C66.4538 81.25 67.2487 81.5793 67.8347 82.1653C68.4208 82.7514 68.75 83.5462 68.75 84.375C68.75 85.2038 68.4208 85.9987 67.8347 86.5847C67.2487 87.1708 66.4538 87.5 65.625 87.5C66.4538 87.5 67.2487 87.8293 67.8347 88.4153C68.4208 89.0014 68.75 89.7962 68.75 90.625C68.75 91.4538 68.4208 92.2487 67.8347 92.8347C67.2487 93.4208 66.4538 93.75 65.625 93.75L64.225 96.5438C63.7063 97.5818 62.9089 98.4549 61.9221 99.0653C60.9352 99.6758 59.7979 99.9994 58.6375 100H41.3625C40.2021 99.9994 39.0648 99.6758 38.078 99.0653C37.0911 98.4549 36.2937 97.5818 35.775 96.5438L34.375 93.75C33.5462 93.75 32.7514 93.4208 32.1653 92.8347C31.5793 92.2487 31.25 91.4538 31.25 90.625C31.25 89.7962 31.5793 89.0014 32.1653 88.4153C32.7514 87.8293 33.5462 87.5 34.375 87.5C33.5462 87.5 32.7514 87.1708 32.1653 86.5847C31.5793 85.9987 31.25 85.2038 31.25 84.375C31.25 83.5462 31.5793 82.7514 32.1653 82.1653C32.7514 81.5793 33.5462 81.25 34.375 81.25C33.7637 81.2511 33.1655 81.0728 32.6545 80.7374C32.1435 80.4019 31.7421 79.9239 31.5 79.3625L26.7438 68.3C26.0628 66.8391 25.1007 65.5267 23.9125 64.4375C20.2977 60.9448 17.424 56.7593 15.4631 52.131C13.5023 47.5027 12.4945 42.5266 12.5 37.5ZM50 6.25003C43.776 6.24897 37.6935 8.10647 32.532 11.5845C27.3705 15.0625 23.3651 20.0025 21.0291 25.7715C18.6932 31.5405 18.1332 37.8756 19.4208 43.965C20.7084 50.0543 23.785 55.6204 28.2563 59.95C29.9 61.5375 31.4688 63.475 32.4813 65.8313L36.4375 75H63.575L67.525 65.8313C68.5375 63.475 70.1063 61.5375 71.75 59.95C76.2217 55.6201 79.2984 50.0534 80.5859 43.9634C81.8733 37.8735 81.3127 31.5379 78.976 25.7686C76.6393 19.9994 72.6329 15.0594 67.4704 11.5819C62.3079 8.10433 56.2245 6.24773 50 6.25003Z" fill="black"/>
</g>
<defs>
<clipPath id="clip0_150_62">
<rect width="100" height="100" fill="white"/>
</clipPath>
</defs>
</svg>
