<svg width="100" height="100" viewBox="0 0 100 100" fill="none" xmlns="http://www.w3.org/2000/svg">
<g clip-path="url(#clip0_150_56)">
<path d="M50 31.25C51.2311 31.25 52.4502 31.0075 53.5877 30.5364C54.7251 30.0652 55.7586 29.3747 56.6291 28.5041C57.4997 27.6336 58.1902 26.6001 58.6614 25.4627C59.1325 24.3252 59.375 23.1061 59.375 21.875C59.375 20.6439 59.1325 19.4248 58.6614 18.2873C58.1902 17.1499 57.4997 16.1164 56.6291 15.2459C55.7586 14.3753 54.7251 13.6848 53.5877 13.2136C52.4502 12.7425 51.2311 12.5 50 12.5C47.5136 12.5 45.129 13.4877 43.3709 15.2459C41.6127 17.004 40.625 19.3886 40.625 21.875C40.625 24.3614 41.6127 26.746 43.3709 28.5041C45.129 30.2623 47.5136 31.25 50 31.25ZM75 50C77.4864 50 79.871 49.0123 81.6291 47.2541C83.3873 45.496 84.375 43.1114 84.375 40.625C84.375 38.1386 83.3873 35.754 81.6291 33.9959C79.871 32.2377 77.4864 31.25 75 31.25C72.5136 31.25 70.129 32.2377 68.3709 33.9959C66.6127 35.754 65.625 38.1386 65.625 40.625C65.625 43.1114 66.6127 45.496 68.3709 47.2541C70.129 49.0123 72.5136 50 75 50ZM34.375 43.75C34.375 46.2364 33.3873 48.621 31.6291 50.3791C29.871 52.1373 27.4864 53.125 25 53.125C22.5136 53.125 20.129 52.1373 18.3709 50.3791C16.6127 48.621 15.625 46.2364 15.625 43.75C15.625 41.2636 16.6127 38.879 18.3709 37.1209C20.129 35.3627 22.5136 34.375 25 34.375C27.4864 34.375 29.871 35.3627 31.6291 37.1209C33.3873 38.879 34.375 41.2636 34.375 43.75ZM37.5 81.25C39.9864 81.25 42.371 80.2623 44.1291 78.5041C45.8873 76.746 46.875 74.3614 46.875 71.875C46.875 69.3886 45.8873 67.004 44.1291 65.2459C42.371 63.4877 39.9864 62.5 37.5 62.5C35.0136 62.5 32.629 63.4877 30.8709 65.2459C29.1127 67.004 28.125 69.3886 28.125 71.875C28.125 74.3614 29.1127 76.746 30.8709 78.5041C32.629 80.2623 35.0136 81.25 37.5 81.25Z" fill="black"/>
<path d="M100 50C100 69.6875 88.3375 66.1563 77.7063 62.9375C71.375 61.0188 65.4063 59.2063 62.5 62.5C58.7313 66.7688 59.5313 73.8688 60.3063 80.75C61.4125 90.5938 62.475 100 50 100C40.111 100 30.444 97.0676 22.2215 91.5735C13.9991 86.0794 7.59043 78.2705 3.80605 69.1342C0.0216641 59.9979 -0.968503 49.9446 0.960758 40.2455C2.89002 30.5465 7.65206 21.6373 14.6447 14.6447C21.6373 7.65206 30.5465 2.89002 40.2455 0.960758C49.9446 -0.968503 59.9979 0.0216641 69.1342 3.80605C78.2705 7.59043 86.0794 13.9991 91.5735 22.2215C97.0676 30.444 100 40.111 100 50ZM50 93.75C53.8188 93.75 54.0875 92.6813 54.0938 92.65C54.5813 91.7375 54.8688 89.75 54.5313 85.6563C54.4438 84.6063 54.3 83.3438 54.15 81.9625C53.825 79.0625 53.45 75.6813 53.4125 72.825C53.35 68.4063 53.9313 62.7625 57.8125 58.3625C60.1188 55.7563 63.0938 54.75 65.7625 54.5C68.2875 54.2625 70.8375 54.6625 73.0125 55.15C75.1563 55.6313 77.4 56.3125 79.4188 56.925L79.5938 56.975C81.7563 57.6313 83.7063 58.2188 85.55 58.6375C89.6313 59.5625 91.2 59.1563 91.7438 58.7875C91.9813 58.625 93.75 57.2563 93.75 50C93.75 41.3471 91.1841 32.8885 86.3768 25.6938C81.5695 18.4992 74.7367 12.8916 66.7424 9.58029C58.7482 6.26896 49.9515 5.40256 41.4648 7.09067C32.9782 8.77877 25.1826 12.9456 19.0641 19.0641C12.9456 25.1826 8.77877 32.9782 7.09067 41.4648C5.40256 49.9515 6.26896 58.7482 9.58029 66.7424C12.8916 74.7367 18.4992 81.5695 25.6938 86.3768C32.8885 91.1841 41.3471 93.75 50 93.75Z" fill="black"/>
</g>
<defs>
<clipPath id="clip0_150_56">
<rect width="100" height="100" fill="white"/>
</clipPath>
</defs>
</svg>
